<svg width="10" height="8" viewBox="0 0 10 8" fill="none" xmlns="http://www.w3.org/2000/svg">
<path d="M7.71908 0.792013L3.42908 5.09201L1.77907 3.44201C1.68943 3.33733 1.57911 3.25231 1.45504 3.19229C1.33098 3.13226 1.19585 3.09853 1.05813 3.09321C0.920409 3.0879 0.783077 3.1111 0.654752 3.16138C0.526427 3.21165 0.409879 3.28791 0.312425 3.38536C0.21497 3.48282 0.138712 3.59937 0.0884374 3.72769C0.0381629 3.85602 0.0149569 3.99335 0.0202764 4.13107C0.0255959 4.26879 0.0593261 4.40392 0.119349 4.52798C0.179373 4.65205 0.264393 4.76237 0.369075 4.85201L2.71908 7.21201C2.81252 7.30469 2.92333 7.37802 3.04517 7.42778C3.16701 7.47755 3.29747 7.50277 3.42908 7.50201C3.69142 7.50091 3.94281 7.39676 4.12908 7.21201L9.12907 2.21201C9.2228 2.11905 9.2972 2.00845 9.34797 1.88659C9.39874 1.76473 9.42487 1.63403 9.42487 1.50201C9.42487 1.37 9.39874 1.2393 9.34797 1.11744C9.2972 0.995577 9.2228 0.884976 9.12907 0.792013C8.94171 0.605762 8.68826 0.501221 8.42408 0.501221C8.15989 0.501221 7.90644 0.605762 7.71908 0.792013Z" fill="#181818"/>
</svg>
